<?xml version="1.0" encoding="UTF-8"?>
<svg xmlns="http://www.w3.org/2000/svg" viewBox="0 0 600.000000 600.000000" width="600" height="600">
<g transform="translate(0.000000,600.000000) scale(0.100000,-0.100000)" fill="#000000">
<path d="M770.0 5160.0C735.5 5159.7 698.1 5133.5 662.9 5116.4C627.8 5099.3 593.4 5077.8 559.1 5057.4C524.9 5036.9 481.5 5020.8 457.6 4993.7C433.6 4966.6 416.4 4930.2 415.4 4894.7C414.4 4859.3 435.7 4817.5 451.6 4781.3C467.5 4745.0 490.9 4711.7 511.1 4677.2C531.2 4642.7 548.7 4605.9 572.6 4574.3C596.4 4542.7 624.3 4513.7 654.1 4487.6C683.9 4461.5 718.0 4439.4 751.5 4417.7C785.0 4396.1 819.4 4375.4 855.2 4357.7C890.9 4340.1 929.3 4327.7 965.9 4311.9C1002.6 4296.1 1042.8 4285.1 1075.1 4262.9C1107.3 4240.8 1134.5 4209.6 1159.5 4178.9C1184.5 4148.1 1203.9 4112.3 1224.9 4078.4C1245.9 4044.4 1275.4 4011.8 1285.5 3975.2C1295.6 3938.5 1288.3 3897.4 1285.5 3858.4C1282.6 3819.5 1264.5 3779.5 1268.4 3741.3C1272.3 3703.1 1292.1 3665.0 1309.0 3629.1C1326.0 3593.3 1348.9 3559.8 1370.4 3526.2C1391.8 3492.5 1415.0 3459.9 1438.0 3427.2C1460.9 3394.4 1484.6 3362.2 1508.1 3329.9C1531.5 3297.6 1555.2 3265.3 1578.9 3233.2C1602.5 3201.0 1626.3 3168.8 1650.1 3136.8C1674.0 3104.7 1698.6 3073.1 1722.2 3041.0C1745.8 3008.8 1768.1 2975.7 1791.8 2943.6C1815.5 2911.5 1839.6 2879.6 1864.3 2848.4C1889.0 2817.2 1914.9 2783.2 1940.0 2756.4C1965.1 2729.5 1984.5 2704.8 2015.2 2687.4C2045.8 2670.1 2086.4 2654.0 2124.0 2652.1C2161.7 2650.3 2203.3 2664.4 2241.2 2676.2C2279.1 2687.9 2316.0 2705.2 2351.4 2722.4C2386.7 2739.6 2418.3 2761.0 2453.1 2779.6C2487.9 2798.2 2524.2 2816.1 2559.9 2834.0C2595.7 2851.9 2631.9 2868.8 2667.5 2886.9C2703.2 2905.0 2738.1 2924.4 2773.8 2942.4C2809.5 2960.3 2845.6 2977.4 2881.7 2994.5C2917.8 3011.6 2953.6 3035.2 2990.5 3045.0C3027.4 3054.7 3073.3 3068.4 3103.1 3053.2C3133.0 3038.0 3148.2 2987.5 3169.5 2953.8C3190.9 2920.1 3208.7 2883.8 3231.4 2851.1C3254.1 2818.4 3279.9 2787.6 3306.0 2757.3C3332.0 2727.1 3362.1 2700.2 3387.7 2669.7C3413.4 2639.2 3439.4 2608.2 3459.9 2574.2C3480.4 2540.2 3499.4 2503.4 3510.6 2465.7C3521.8 2428.1 3533.1 2384.5 3527.1 2348.4C3521.1 2312.2 3503.1 2266.8 3474.6 2248.7C3446.0 2230.6 3389.7 2227.8 3355.6 2240.0C3321.5 2252.2 3297.5 2293.4 3269.7 2321.8C3242.0 2350.2 3215.5 2380.5 3189.0 2410.4C3162.5 2440.3 3136.9 2471.0 3110.9 2501.3C3084.9 2531.7 3062.5 2567.1 3032.8 2592.3C3003.2 2617.6 2969.8 2642.7 2933.3 2652.8C2896.7 2662.8 2852.8 2656.2 2813.4 2652.5C2774.0 2648.7 2734.0 2642.7 2696.7 2630.1C2659.3 2617.5 2624.5 2595.8 2589.3 2576.9C2554.1 2558.0 2519.7 2537.6 2485.6 2516.8C2451.4 2496.0 2418.3 2473.7 2384.6 2452.1C2351.0 2430.6 2317.6 2408.6 2283.6 2387.6C2249.7 2366.6 2214.7 2347.4 2180.9 2326.2C2147.1 2305.0 2115.6 2279.9 2080.9 2260.5C2046.1 2241.0 2009.3 2224.7 1972.4 2209.7C1935.4 2194.6 1897.4 2181.8 1859.2 2170.1C1821.0 2158.5 1782.2 2148.6 1743.2 2139.9C1704.3 2131.2 1664.9 2123.8 1625.4 2117.8C1585.9 2111.9 1546.1 2107.4 1506.3 2104.2C1466.5 2101.1 1426.5 2099.5 1386.6 2098.7C1346.7 2097.9 1306.7 2098.4 1266.7 2099.6C1226.8 2100.7 1186.9 2102.9 1147.0 2105.6C1107.1 2108.4 1067.3 2112.0 1027.6 2116.1C987.8 2120.3 948.2 2125.1 908.6 2130.4C869.0 2135.7 829.4 2141.7 790.0 2148.0C750.5 2154.4 711.2 2161.3 671.9 2168.6C632.6 2175.9 593.5 2184.2 554.3 2191.8C515.0 2199.5 476.0 2208.9 436.6 2214.7C397.1 2220.4 352.8 2234.2 317.4 2226.4C282.1 2218.6 235.2 2195.2 224.7 2167.9C214.1 2140.6 231.3 2088.6 254.3 2062.5C277.2 2036.5 325.3 2025.5 362.5 2011.5C399.7 1997.4 439.3 1989.5 477.6 1978.1C515.9 1966.7 554.0 1954.7 592.2 1942.9C630.4 1931.1 668.1 1917.6 706.6 1907.2C745.2 1896.8 784.2 1888.0 823.4 1880.4C862.7 1872.8 902.6 1868.9 941.9 1861.8C981.2 1854.7 1020.0 1844.8 1059.3 1837.7C1098.6 1830.6 1138.0 1824.1 1177.7 1819.1C1217.3 1814.1 1257.2 1810.9 1297.0 1807.7C1336.8 1804.6 1376.7 1802.0 1416.6 1800.3C1456.6 1798.5 1496.6 1796.2 1536.5 1797.0C1576.4 1797.8 1616.3 1800.9 1656.0 1804.9C1695.7 1808.9 1735.3 1815.1 1774.8 1821.0C1814.3 1826.9 1853.6 1834.3 1893.1 1840.4C1932.6 1846.4 1972.2 1851.9 2011.8 1857.1C2051.4 1862.4 2091.2 1866.2 2130.8 1871.7C2170.4 1877.2 2209.8 1883.9 2249.3 1889.9C2288.8 1896.0 2328.4 1901.3 2367.8 1907.9C2407.2 1914.5 2446.3 1923.2 2485.7 1929.3C2525.2 1935.5 2565.3 1938.0 2604.6 1944.6C2644.0 1951.2 2682.8 1961.1 2722.0 1968.7C2761.2 1976.3 2800.3 1985.1 2839.9 1990.0C2879.4 1995.0 2919.5 1997.7 2959.4 1998.3C2999.3 1999.0 3039.4 1997.0 3079.1 1993.9C3118.9 1990.8 3158.6 1985.2 3198.2 1979.6C3237.7 1974.0 3277.2 1967.7 3316.5 1960.3C3355.7 1952.9 3394.9 1944.6 3433.7 1935.2C3472.5 1925.8 3510.2 1911.8 3549.3 1903.9C3588.4 1896.1 3628.8 1894.9 3668.1 1888.3C3707.4 1881.6 3746.4 1872.5 3785.3 1864.1C3824.2 1855.7 3862.6 1846.8 3901.5 1838.1C3940.3 1829.4 3979.5 1821.1 4018.3 1811.8C4057.2 1802.6 4095.6 1791.2 4134.6 1782.6C4173.6 1774.1 4212.9 1765.8 4252.4 1760.4C4291.9 1755.1 4331.9 1751.7 4371.8 1750.3C4411.6 1749.0 4451.7 1750.6 4491.6 1752.2C4531.5 1753.9 4571.5 1756.5 4611.2 1760.4C4651.0 1764.3 4690.8 1768.7 4730.1 1775.6C4769.4 1782.4 4808.6 1790.9 4847.1 1801.5C4885.6 1812.1 4922.7 1827.3 4961.0 1838.9C4999.2 1850.6 5037.8 1860.7 5076.4 1871.3C5114.9 1881.8 5153.2 1894.0 5192.2 1902.1C5231.3 1910.1 5270.8 1916.9 5310.4 1919.4C5350.1 1921.9 5390.3 1918.3 5430.3 1917.1C5470.2 1915.9 5510.2 1913.8 5550.1 1912.2C5589.9 1910.6 5632.7 1898.4 5669.5 1907.6C5706.3 1916.8 5748.2 1939.1 5770.9 1967.5C5793.6 1995.8 5813.0 2047.1 5805.7 2077.7C5798.5 2108.2 5760.4 2139.8 5727.4 2150.8C5694.4 2161.7 5646.9 2139.7 5607.7 2143.2C5568.6 2146.6 5529.4 2157.7 5492.3 2171.5C5455.3 2185.2 5421.8 2209.9 5385.4 2225.5C5349.1 2241.2 5312.4 2255.2 5274.2 2265.3C5235.9 2275.4 5195.6 2285.1 5156.1 2286.0C5116.7 2286.8 5077.2 2275.1 5037.6 2270.4C4998.0 2265.6 4958.2 2258.9 4918.4 2257.5C4878.6 2256.2 4838.3 2256.7 4799.0 2262.1C4759.7 2267.5 4716.2 2271.5 4682.7 2289.9C4649.2 2308.4 4623.6 2342.6 4598.0 2372.8C4572.5 2403.0 4551.4 2437.9 4529.5 2471.1C4507.5 2504.3 4488.9 2539.4 4466.3 2572.0C4443.7 2604.6 4417.6 2634.9 4393.9 2666.9C4370.1 2698.9 4346.6 2731.2 4323.8 2764.0C4301.0 2796.8 4278.9 2830.1 4257.1 2863.6C4235.3 2897.0 4213.0 2930.3 4193.1 2964.8C4173.1 2999.4 4156.4 3035.9 4137.4 3071.0C4118.4 3106.1 4097.2 3140.2 4078.9 3175.6C4060.6 3211.0 4047.8 3249.8 4027.6 3283.3C4007.3 3316.8 3978.6 3343.8 3957.4 3376.9C3936.2 3410.0 3922.6 3449.2 3900.1 3481.9C3877.7 3514.6 3848.4 3542.5 3822.8 3573.0C3797.1 3603.6 3771.1 3634.2 3746.3 3665.3C3721.4 3696.5 3703.1 3734.6 3673.9 3759.9C3644.8 3785.3 3607.6 3802.5 3571.4 3817.7C3535.2 3832.9 3495.7 3844.0 3456.7 3851.1C3417.7 3858.3 3374.9 3867.5 3337.4 3860.6C3299.9 3853.8 3265.0 3830.7 3231.6 3810.1C3198.1 3789.6 3170.5 3758.2 3136.7 3737.4C3102.9 3716.5 3064.5 3703.2 3028.9 3685.0C2993.3 3666.8 2958.6 3647.1 2923.4 3628.1C2888.2 3609.2 2853.1 3590.0 2817.9 3571.3C2782.7 3552.7 2747.0 3535.4 2712.1 3516.2C2677.2 3497.1 2642.2 3477.4 2608.4 3456.2C2574.6 3435.1 2543.2 3410.0 2509.3 3389.5C2475.3 3369.1 2440.1 3351.6 2404.7 3333.5C2369.3 3315.5 2334.1 3291.2 2296.9 3281.2C2259.7 3271.2 2215.2 3261.4 2181.3 3273.7C2147.4 3285.9 2119.9 3324.8 2093.7 3354.6C2067.5 3384.3 2046.9 3419.3 2024.1 3452.1C2001.3 3484.9 1979.2 3518.3 1956.8 3551.4C1934.4 3584.4 1912.3 3617.7 1889.5 3650.6C1866.8 3683.4 1844.8 3717.0 1820.3 3748.5C1795.8 3780.0 1769.5 3810.2 1742.5 3839.6C1715.6 3869.0 1689.4 3900.5 1658.5 3925.1C1627.7 3949.7 1594.3 3974.4 1557.6 3987.3C1521.0 4000.1 1475.8 3990.9 1438.8 4002.4C1401.8 4013.8 1364.7 4031.1 1335.5 4056.0C1306.4 4081.0 1287.0 4119.5 1263.8 4152.1C1240.7 4184.6 1216.0 4216.7 1196.5 4251.2C1176.9 4285.7 1156.1 4321.2 1146.6 4359.1C1137.1 4397.0 1140.0 4438.9 1139.5 4478.7C1139.0 4518.6 1146.9 4559.0 1143.7 4598.3C1140.4 4637.6 1131.9 4676.7 1120.2 4714.4C1108.5 4752.1 1090.7 4788.8 1073.4 4824.6C1056.0 4860.4 1036.8 4895.1 1016.3 4929.2C995.8 4963.4 974.9 4997.9 950.5 5029.3C926.1 5060.8 900.1 5096.3 870.0 5118.1C839.9 5139.9 804.5 5160.3 770.0 5160.0Z"/>
<path d="M2674.0 4487.0C2635.3 4478.1 2593.9 4466.7 2560.8 4447.1C2527.7 4427.6 2499.6 4399.5 2475.2 4369.5C2450.8 4339.4 2428.8 4303.4 2414.4 4266.8C2400.0 4230.1 2393.9 4189.0 2388.8 4149.5C2383.8 4110.0 2378.0 4068.6 2384.2 4030.0C2390.3 3991.3 2406.2 3951.3 2426.0 3917.5C2445.8 3883.7 2473.9 3852.4 2503.2 3827.3C2532.5 3802.2 2565.6 3780.3 2601.6 3766.9C2637.7 3753.5 2679.7 3750.5 2719.3 3746.9C2759.0 3743.3 2801.7 3737.4 2839.5 3745.2C2877.4 3753.0 2912.6 3773.4 2946.3 3793.7C2979.9 3814.0 3013.3 3839.0 3041.2 3867.0C3069.0 3895.1 3098.6 3926.6 3113.4 3962.2C3128.1 3997.9 3128.8 4041.1 3129.8 4080.8C3130.8 4120.5 3127.6 4161.5 3119.4 4200.4C3111.3 4239.2 3099.8 4279.6 3080.7 4313.9C3061.7 4348.3 3033.6 4378.8 3005.3 4406.5C2977.0 4434.2 2946.1 4464.5 2910.8 4480.2C2875.4 4495.9 2832.7 4499.3 2793.2 4500.5C2753.7 4501.6 2712.7 4495.9 2674.0 4487.0Z"/>
</g>
</svg>
